<?xml version="1.0" encoding="utf-8"?>
<!-- Generator: Adobe Illustrator 24.0.2, SVG Export Plug-In . SVG Version: 6.00 Build 0)  -->
<svg version="1.1" id="Capa_1" xmlns="http://www.w3.org/2000/svg" xmlns:xlink="http://www.w3.org/1999/xlink" x="0px" y="0px"
	 viewBox="0 0 25 25" style="enable-background:new 0 0 25 25;" xml:space="preserve">
<style type="text/css">
	.st0{fill:#C50303;}
</style>
<g>
	<path class="st0" d="M22.3,5.2c0.6,1.1,1.1,2.3,1.3,3.6c-0.7,0.1-1.4,0.2-2,0.2c-1.1,0-2.4-0.3-3.6-0.9V7.9c0-1.2-1.8-1.7-5.3-1.7
		C9,6.2,7.1,6.8,7.1,7.9v0.2C5.9,8.8,4.8,9.2,3.5,9.2c-0.7,0-1.4-0.1-2.1-0.4c0.2-1.3,0.7-2.5,1.3-3.6c1.5-0.6,3-1,4.7-1.3
		c1.6-0.3,3.3-0.4,5-0.4c1.8,0,3.5,0.1,5.2,0.4C19.3,4.2,20.8,4.6,22.3,5.2z M7.1,8.8v0.4c0,1-0.3,1.6-0.8,2.1
		c-0.6,0.4-1.5,0.6-2.7,0.6c-0.8,0-1.4-0.1-1.7-0.4s-0.5-0.8-0.5-1.6V9.4c0.8,0.3,1.5,0.4,2.2,0.4C4.8,9.8,5.9,9.4,7.1,8.8z
		 M10.8,9.5h3.5V7.9h2.6v2.2l3.1,5c0.5,0.7,0.8,1.3,0.9,1.8C21,17.4,21,18,21,18.7v2.8H3.9v-2.8c0-1.2,0.4-2.4,1.2-3.6l3-4.9V7.9
		h2.6C10.7,7.9,10.7,9.5,10.8,9.5z M9.3,11.4v1h1.5v-1C10.8,11.4,9.3,11.4,9.3,11.4z M9.3,13.1v1h1.5v-1H9.3z M9.3,14.9v1h1.5v-1
		H9.3z M11.8,11.4v1h1.5v-1C13.3,11.4,11.8,11.4,11.8,11.4z M11.8,13.1v1h1.5v-1H11.8z M11.8,14.9v1h1.5v-1H11.8z M14.3,11.4v1h1.5
		v-1C15.8,11.4,14.3,11.4,14.3,11.4z M14.3,13.1v1h1.5v-1H14.3z M14.3,14.9v1h1.5v-1H14.3z M23.5,9.3v0.6c0,0.7-0.2,1.2-0.5,1.5
		c-0.3,0.3-0.9,0.4-1.7,0.4c-1.2,0-2.1-0.2-2.6-0.6c-0.6-0.4-0.9-1.1-0.9-1.9V8.7c1.1,0.6,2.3,0.9,3.6,0.9C22.3,9.6,23,9.5,23.5,9.3
		z"/>
</g>
</svg>
