<?xml version="1.0" encoding="utf-8"?>
<!-- Generator: Adobe Illustrator 24.0.2, SVG Export Plug-In . SVG Version: 6.00 Build 0)  -->
<svg version="1.1" id="Capa_1" xmlns="http://www.w3.org/2000/svg" xmlns:xlink="http://www.w3.org/1999/xlink" x="0px" y="0px"
	 viewBox="0 0 25 25" style="enable-background:new 0 0 25 25;" xml:space="preserve">
<style type="text/css">
	.st0{fill:#C50303;}
</style>
<g>
	<path class="st0" d="M22.3,8.8c0,0,0,0.1,0,0.1c0.1,0.4,0.2,0.8,0.2,1.2c0,0.4,0.1,0.8,0.1,1.3c0,0.1,0,0.3,0,0.4
		c0,0.2,0,0.3,0,0.5c0,0.1,0,0.3,0,0.4c0,0.2,0,0.3-0.1,0.5c-0.1,0.3-0.1,0.7-0.2,1c0,0.1-0.1,0.3-0.1,0.4c-0.1,0.3-0.2,0.5-0.2,0.8
		c-0.2,0.1-0.3-0.1-0.5-0.1c-0.3-0.2-0.6-0.3-0.9-0.5c-0.1,0-0.1-0.1-0.2-0.1c-0.1,0-0.2-0.1-0.2-0.1c0-0.1,0.1-0.3,0.1-0.4
		c0.1-0.3,0.2-0.6,0.2-1c0.1-0.2,0-0.5,0.1-0.7c0.1-0.5,0.1-0.5-0.4-0.5c-0.1,0-0.3,0-0.4,0c-0.1,0-0.2,0-0.3,0c-0.1,0-0.2,0-0.2,0
		c0,0-0.1,0-0.1,0c0,0-0.1,0-0.1,0c-0.2,0-0.5,0-0.7,0c-0.3,0-0.6,0-0.8,0c-0.2,0-0.5-0.1-0.7,0c-0.2,0.1-0.1,0.4-0.1,0.7
		c0,0.1,0,0.2-0.2,0.1c-0.2-0.1-0.4-0.2-0.6-0.3c-0.2-0.1-0.2-0.2-0.2-0.3c0-0.1,0.1-0.2-0.1-0.2c-0.2,0-0.4,0-0.6,0
		c-0.3,0-0.5-0.2-0.8-0.3c-0.3-0.1-0.5-0.3-0.8-0.4c-0.1-0.1-0.2-0.1-0.3-0.2c0,0-0.1,0-0.1,0c0,0-0.1-0.1,0-0.1c0.1,0,0.2,0,0.3,0
		c0.1,0,0.3,0,0.4,0c0.1,0,0.3,0,0.4,0c0.5,0,0.9,0,1.4,0c0.3,0,0.3-0.1,0.3-0.3c0-0.2,0-0.4,0-0.7c0-0.3,0.1-0.5-0.1-0.7
		c0,0,0,0,0-0.1c0-0.2,0-0.3-0.3-0.3c-0.1,0-0.2,0-0.4,0.1c0,0,0,0-0.1,0c-0.5,0-1.1,0.1-1.6,0.1c0,0-0.1,0-0.1,0
		c-0.7,0-1.5,0-2.2,0c-0.1,0-0.2,0-0.3,0c-0.3,0-0.5,0-0.8-0.1C9.1,9.2,8.5,9.1,7.9,9C7.5,8.9,7.7,9.3,7.6,9.4c0,0.1,0,0.3-0.1,0.4
		c0,0.3,0,0.5,0,0.8c-0.1,0.5-0.1,0.5,0.4,0.5c0.1,0,0.1,0,0.2,0c0.1,0,0.3,0,0.4,0c0.7,0,1.3,0,2,0c0.1,0,0.3,0,0.4,0
		c0.1,0,0.3,0,0.4,0c0.1,0,0.3,0,0.4,0c0.1,0,0.3,0,0.4,0c0.1,0,0.2,0,0.4,0c0,0.1,0,0.1,0,0.2c0.1,0.2,0.1,0.3,0.2,0.5
		c0,0.1,0.1,0.3-0.2,0.3c-0.1,0-0.3,0-0.4,0c-0.1,0-0.3,0-0.4,0c-0.2,0-0.3,0-0.4,0c-0.1,0-0.2,0-0.2,0c-0.2,0-0.3,0-0.5,0
		c-0.1,0-0.1,0-0.2,0c0,0-0.1,0-0.1,0c0,0-0.1,0-0.1,0c-0.2,0-0.3,0-0.5,0c-0.1,0-0.2,0-0.3,0c-0.1,0-0.3,0-0.4,0
		c-0.1,0-0.3,0-0.4,0c-0.1,0-0.3,0-0.4,0c-0.7,0-0.6-0.1-0.6,0.5c0,0,0,0,0,0.1c0,0.5,0.1,0.9,0.1,1.4c0.1,0.5,0.1,0.5,0.6,0.4
		c0.6-0.1,1.2-0.1,1.8-0.2c0.3,0,0.7,0,1-0.1c0,0,0.1,0,0.1,0c0.1,0,0.3,0,0.4,0c0.1,0,0.3,0,0.4,0c0.1,0,0.2,0,0.3,0
		c0.2,0,0.3,0,0.5,0c0.3,0,0.5,0.1,0.5,0.5c0,0,0,0,0,0.1c0,0.1,0,0.3,0.1,0.4c0,0,0,0.1,0,0.1c0,0.1,0.1,0.3,0.1,0.4
		c0,0.1,0.1,0.3,0,0.4c0,0-0.1,0-0.1,0c-0.1,0-0.3,0-0.4,0c-0.1,0-0.3-0.1-0.4,0c-0.1,0-0.2,0-0.2,0c0-0.1-0.1-0.1-0.2-0.1
		c-0.2,0-0.3,0-0.5,0c-0.1,0-0.1,0-0.2,0c-0.1,0-0.3,0-0.4,0c0,0-0.1,0-0.1,0c-0.1,0-0.2,0-0.3,0c-0.1,0-0.3,0-0.4,0
		c-0.1,0-0.3,0-0.4,0c-0.1,0-0.3,0-0.4,0c-0.2,0-0.4,0-0.6,0.1c-0.1,0-0.1,0-0.2,0c-0.2,0-0.4,0.1-0.7,0.1c-0.2,0-0.2,0.1-0.2,0.3
		c0.1,0.3,0.2,0.7,0.3,1c0.1,0.2,0.1,0.3,0.2,0.4c0,0.2,0.1,0.3,0.2,0.4c0,0.1,0,0.1,0.1,0.1c0.4,0.7,0.8,1.4,1.5,1.8
		c0.5,0.3,1,0.5,1.6,0.3c0.3-0.1,0.6-0.2,0.8-0.4c0.1-0.1,0.2-0.2,0.4-0.3c0.2-0.1,0.3-0.2,0.4-0.4c0,0,0.1-0.1,0.1-0.1
		c0.1-0.1,0.2-0.2,0.2-0.3c0.1-0.1,0.1-0.2,0.2-0.3c0.1,0,0.1-0.1,0.1-0.2c0.1-0.1,0.1-0.2,0.1-0.3c0.2-0.1,0.1,0.1,0.2,0.2
		c0.1,0.4,0.2,0.7,0.3,1c0.1,0.4,0.2,0.8,0.3,1.1c0,0.1,0.1,0.2,0.1,0.2c0,0.2,0.1,0.3,0.1,0.5c0,0.2,0.1,0.3,0.1,0.5
		c0.1,0.2,0,0.2-0.1,0.3c-0.3,0.1-0.6,0.2-0.9,0.3c-0.4,0.1-0.8,0.2-1.3,0.3c-0.2,0.1-0.5,0-0.8,0.1c-0.6,0-1.2,0-1.8,0c0,0,0,0,0,0
		C10,22.8,9.5,22.7,9,22.6c-0.1,0-0.3-0.1-0.4-0.1c-0.3-0.1-0.5-0.2-0.8-0.3c-0.1-0.1-0.2-0.1-0.4-0.1c-0.2-0.2-0.5-0.3-0.8-0.4
		c-0.1-0.1-0.3-0.2-0.4-0.2c-0.2-0.2-0.5-0.3-0.7-0.5c0,0,0,0,0,0c-0.1-0.1-0.3-0.2-0.4-0.3c-0.2-0.2-0.4-0.3-0.6-0.5
		c-0.3-0.3-0.6-0.5-0.8-0.8c-0.6-0.8-1.3-1.5-1.7-2.4c-0.1-0.3-0.3-0.6-0.4-0.9c-0.1-0.3-0.2-0.6-0.4-0.9c0-0.2-0.1-0.3-0.1-0.4
		c-0.1-0.4-0.2-0.7-0.3-1.1c0,0,0-0.1,0-0.1c0-0.3-0.1-0.6-0.1-0.9c0-0.1,0-0.3,0-0.4c0-0.1,0-0.3,0-0.4c0-0.2,0-0.3,0-0.5
		c0-0.5,0.1-1,0.1-1.5c0,0,0-0.1,0-0.1c0.1-0.1,0.1-0.2,0.1-0.3c0,0,0-0.1,0-0.1c0-0.1,0.1-0.2,0.1-0.4C1,8.8,1,8.5,1.1,8.3
		c0,0,0-0.1,0-0.1C1.2,8.1,1.2,8.1,1.2,8c0.2-0.5,0.4-1,0.6-1.5C2,6.1,2.2,5.9,2.3,5.6c0,0,0.1-0.1,0.1-0.1C2.5,5.3,2.6,5.1,2.7,5
		c0,0,0.1-0.1,0.1-0.1C2.9,4.7,3,4.6,3.1,4.5C3.3,4.2,3.5,4,3.8,3.7c0,0,0,0,0,0C3.9,3.6,4,3.5,4.1,3.4c0.1,0,0.1,0,0.1-0.1
		c0,0,0,0,0,0C4.4,3.2,4.6,3,4.7,2.8C5.1,2.6,5.5,2.3,5.9,2C6,2,6.1,1.9,6.2,1.8C6.5,1.7,6.8,1.6,7,1.4c0.1,0,0.2,0,0.3-0.1
		c0,0,0,0,0.1,0c0.1,0,0.1,0,0.1-0.1c0.1,0,0.1,0,0.1-0.1c0,0,0,0,0,0C7.9,1,8.2,0.9,8.4,0.9c0.1,0,0.1,0,0.2,0
		c0.3-0.1,0.5-0.1,0.8-0.2c1.1-0.2,2.3-0.3,3.4-0.2c0.1,0.1,0.3,0,0.4,0c0.1,0.1,0.2,0.1,0.4,0.1c0.1,0.1,0.3,0.1,0.4,0.1
		c0.1,0.1,0.3,0.1,0.4,0.1c0.2,0.1,0.4,0.1,0.7,0.2c0.2,0.1,0.3,0.1,0.5,0.2c0.3,0.1,0.5,0.2,0.8,0.3c0.1,0.1,0.2,0.1,0.3,0.2
		c0.3,0.1,0.5,0.3,0.8,0.4c0,0.1,0.1,0.1,0.2,0.1c0.1,0,0.1,0.1,0.2,0.1c0.1,0.1,0.2,0.2,0.4,0.2c0,0,0.1,0.1,0.1,0.1
		c0,0.1,0.1,0.2,0.2,0.2c0.8,0.7,1.4,1.4,2,2.2c0,0,0,0.1,0.1,0.1c0.3,0.5,0.6,1,0.9,1.5c0.1,0.3,0.3,0.7,0.4,1
		C22,8,22.1,8.4,22.3,8.8z M5.1,6.7c0.1,0.1,0.2,0.1,0.3,0.1c0.1,0.1,0.2,0.1,0.4,0.1C5.9,7,6,7,6.2,7c0.1,0,0.1,0,0.2,0
		c0.1,0,0.3,0.1,0.4,0.1C6.9,7.2,7,7.2,7,7c0-0.2,0.1-0.4,0.1-0.5c0-0.1,0-0.1,0-0.2c0.1-0.1,0-0.2,0-0.3c0.2-0.3,0.3-0.7,0.4-1.1
		c0.1-0.1,0.1-0.1,0.1-0.2c0.2-0.5,0.4-1,0.6-1.4C7.9,3.3,7.6,3.4,7.4,3.6l0,0C7,3.8,6.6,4.1,6.2,4.3C6.1,4.4,5.9,4.6,5.8,4.7
		C5.7,4.8,5.5,4.9,5.4,5l0,0C5.1,5.3,4.8,5.6,4.6,6c0,0,0,0,0,0C4.5,6.1,4.4,6.2,4.4,6.2C4.2,6.4,4.2,6.6,4.5,6.6
		c0,0,0.1,0.1,0.2,0.1C4.8,6.7,4.9,6.7,5.1,6.7z M5,11.1c0.1,0,0.3,0,0.4,0c0.1,0,0.3,0,0.4,0c0.1,0,0.3,0,0.4,0
		c0.1,0,0.4,0.1,0.4-0.1c0-0.4,0-0.8,0-1.1c0-0.3,0-0.5,0.1-0.8c0,0,0-0.1,0-0.1c0,0,0,0,0,0c0,0,0,0,0,0c-0.1-0.1-0.3,0-0.5-0.1
		c0,0,0,0,0,0c0-0.2-0.2-0.1-0.3-0.1C5.7,8.6,5.6,8.5,5.4,8.5C5.3,8.5,5.2,8.5,5.1,8.5C4.6,8.3,4.1,8.2,3.6,8C3.5,7.9,3.4,8,3.3,8.1
		C3,8.9,2.8,9.6,2.7,10.4c0,0.1,0,0.3,0,0.4c-0.1,0.3,0,0.4,0.3,0.3c0.1,0,0.1,0,0.2,0c0.1,0,0.3,0,0.4,0c0.1,0,0.3,0,0.4,0
		c0.1,0,0.3,0,0.4,0c0.1,0,0.3,0,0.4,0C4.8,11.1,4.9,11.1,5,11.1z M6.3,19c0,0,0.1,0.1,0.1,0.1l0,0c0.4,0.3,0.8,0.6,1.3,0.8
		C7.9,20,8.1,20,8.3,20.1c-0.1-0.2-0.2-0.4-0.3-0.5C8,19.4,7.9,19.2,7.8,19c-0.1-0.3-0.2-0.7-0.4-1c0-0.2,0-0.3-0.1-0.4
		c0-0.2-0.1-0.4-0.1-0.6c-0.1-0.5-0.1-0.5-0.6-0.3c-0.2,0-0.3,0-0.5,0.1c-0.3,0.1-0.6,0.2-0.9,0.3l0,0c-0.2-0.1-0.3,0-0.4,0.1
		c-0.2,0-0.2,0.1-0.1,0.2C5.1,18,5.6,18.5,6.3,19C6.2,19,6.3,19,6.3,19z M8.2,6.5c0,0.1-0.1,0.3-0.1,0.4C7.9,7.4,7.9,7.4,8.5,7.4
		c0,0,0.1,0,0.1,0c1.1,0.2,2.2,0.2,3.4,0.2c0.1,0,0.3,0,0.4,0c0.4,0,0.8,0,1.2-0.1c0.2,0,0.4,0,0.6,0c0.3,0,0.5,0,0.8-0.1
		c0.1,0,0.1,0,0.2,0c0.1-0.1,0.1-0.1,0-0.2c0-0.1,0.1-0.2-0.1-0.2c0-0.4-0.2-0.9-0.4-1.2c0-0.1,0-0.2-0.1-0.2
		c-0.1-0.4-0.3-0.7-0.5-1.1c0-0.1,0-0.1-0.1-0.1C14,4.2,13.9,4.1,13.8,4c0-0.1-0.1-0.2-0.1-0.2c-0.1-0.1-0.1-0.2-0.2-0.3
		c0-0.1-0.1-0.1-0.1-0.2c-0.2-0.3-0.5-0.5-0.9-0.6c-0.1-0.1-0.2-0.1-0.4-0.1c-0.2-0.1-0.4-0.1-0.5,0c0,0,0,0,0,0
		c-0.2,0-0.4,0.1-0.6,0.1c-0.2,0.1-0.4,0.2-0.5,0.3c0,0,0,0-0.1,0C9.4,3.6,9,4.5,8.6,5.5C8.5,5.7,8.4,5.9,8.4,6.1c0,0,0,0,0,0
		C8.3,6.2,8.3,6.4,8.2,6.5z M16.6,10.2c0,0.2-0.1,0.4,0.1,0.5c0,0-0.1,0-0.1,0.1c-0.1,0.5,0.3,0.2,0.4,0.3c0.1,0,0.3,0,0.4,0
		c0.1,0,0.3,0,0.4,0c0.1,0,0.3,0,0.4,0c0.1,0,0.2,0,0.3,0c0.6,0,1.2,0,1.7,0c0.2,0,0.2-0.1,0.2-0.2c0-0.3-0.1-0.5-0.1-0.8
		c0,0,0,0,0-0.1c0,0,0-0.1,0-0.1c0-0.4-0.1-0.7-0.2-1C20.1,8.7,20,8.5,20,8.4c-0.2-0.4-0.2-0.4-0.6-0.3c-0.2,0.1-0.3,0.1-0.5,0.2
		c-0.7,0.2-1.3,0.4-2,0.5c-0.1,0-0.2,0-0.3,0.1c-0.4,0-0.1,0.3-0.2,0.4c0,0.2,0,0.4,0,0.6C16.6,10,16.6,10.1,16.6,10.2z M3.2,14.9
		c0,0.1,0,0.2,0.1,0.2c0,0.1,0.1,0.3,0.2,0.4c0,0.3,0.2,0.2,0.3,0.1c0.2-0.1,0.5-0.2,0.7-0.2c0,0,0.1,0,0.1,0
		c0.3-0.1,0.5-0.1,0.8-0.2c0.3-0.1,0.7-0.1,1-0.3c0.1-0.1,0.3,0.2,0.3-0.1c0-0.3-0.2-0.6-0.1-0.9c0-0.2,0-0.3,0-0.5
		c0-0.2,0-0.3,0-0.5c0-0.1,0-0.3,0-0.4c0.1-0.3-0.2-0.2-0.3-0.2c-0.2,0-0.3,0-0.5,0c-0.1,0-0.2,0-0.4,0c-0.4,0-0.8,0-1.2,0
		c-0.1,0-0.2,0-0.4,0c-0.1,0-0.3,0-0.4,0c-0.1,0-0.2,0-0.4,0c-0.5-0.1-0.5-0.1-0.5,0.3c0,0.1,0,0.2,0,0.2c0,0.2,0,0.4,0.1,0.6
		c0.1,0.4,0.1,0.8,0.3,1.1C3.1,14.5,3.2,14.7,3.2,14.9z M16.2,7c0,0.2,0,0.2,0.2,0.2c0.3,0.1,0.6-0.1,0.8-0.1C17.3,7,17.4,7,17.5,7
		c0.1,0,0.3,0,0.4-0.1c0.2,0,0.3-0.1,0.4-0.1c0.1,0,0.2,0,0.3-0.1c0.1,0,0.4,0,0.4-0.2c0-0.2-0.1-0.3-0.3-0.4c0,0,0-0.1-0.1-0.1
		c0-0.2-0.2-0.3-0.3-0.4c0,0-0.1-0.1-0.1-0.1c-0.1-0.1-0.2-0.2-0.3-0.3c-0.4-0.4-0.8-0.8-1.3-1.1c-0.2-0.2-0.4-0.4-0.7-0.4
		c-0.3-0.3-0.6-0.4-1-0.5c0.1,0.2,0.2,0.4,0.3,0.6c0,0.1,0.1,0.2,0.1,0.3c0,0.1,0,0.1,0.1,0.2c0,0.1,0,0.2,0.1,0.3
		c0,0.2,0.1,0.3,0.2,0.5c0.1,0.3,0.2,0.6,0.3,1c0.1,0.2,0.1,0.5,0.2,0.7C16.1,6.8,16.1,6.9,16.2,7z"/>
	<path class="st0" d="M20.2,22c-0.1-0.3-0.3-0.5-0.5-0.7c-0.2-0.3-0.4-0.6-0.7-0.9c-0.2,0.2-0.3,0.4-0.4,0.6
		c-0.4,0.6-0.8,1.3-1.1,1.9c0,0.1-0.1,0.1-0.1,0.2c-0.1,0.1-0.1,0.2-0.2,0.3c-0.1,0.1-0.1,0.1-0.1,0.2c-0.2,0-0.1-0.2-0.2-0.2
		c-0.1-0.3-0.1-0.6-0.3-0.9c0-0.2-0.1-0.3-0.1-0.5c-0.1-0.3-0.2-0.6-0.3-1c-0.1-0.3-0.2-0.7-0.3-1c0-0.2-0.1-0.3-0.1-0.4
		c-0.1-0.3-0.2-0.7-0.3-1c0-0.2-0.1-0.3-0.1-0.5c-0.1-0.3-0.3-0.6-0.3-0.9c0-0.1,0-0.1-0.1-0.2c-0.1-0.4-0.2-0.9-0.4-1.3
		c-0.1-0.4-0.2-0.7-0.3-1.1c0-0.1-0.1-0.2-0.1-0.3c0-0.2-0.1-0.3-0.1-0.5c-0.1-0.2-0.1-0.4-0.2-0.6c0-0.1-0.1-0.1,0-0.2
		c0.1-0.1,0.1,0,0.2,0c0.3,0.1,0.6,0.3,0.9,0.4c0.1,0.1,0.2,0.1,0.4,0.2c0.3,0.2,0.6,0.3,0.9,0.4c0,0.1,0.1,0.1,0.2,0.1
		c0.1,0,0.2,0.1,0.2,0.1c0.1,0.1,0.2,0.1,0.3,0.1c0.1,0.1,0.3,0.1,0.4,0.2c0.3,0.1,0.5,0.2,0.8,0.4c0.3,0.1,0.5,0.3,0.8,0.4
		c0.1,0.1,0.2,0.1,0.3,0.2c0.2,0.1,0.5,0.2,0.7,0.3c0.1,0.1,0.2,0.1,0.3,0.1c0.1,0.1,0.3,0.2,0.4,0.2c0.4,0.2,0.8,0.4,1.2,0.6
		c0.2,0.1,0.3,0.2,0.6,0.3c0,0,0,0,0.1,0c0,0.1,0.1,0.1,0.2,0.1c0.1,0.1,0.2,0.1,0.4,0.2c0.1,0.1,0.3,0.2,0.4,0.2c0,0,0,0,0,0
		c0,0,0,0.1,0,0.1c-0.1,0-0.3,0.1-0.4,0.2c-0.1,0-0.2,0.1-0.3,0.1c0,0-0.1,0-0.1,0.1c-0.2,0.1-0.3,0.1-0.5,0.2
		c-0.6,0.2-1.2,0.6-1.8,0.9c0.1,0.1,0.1,0.2,0.2,0.2c0.3,0.2,0.6,0.5,0.9,0.7c0,0,0,0,0,0c0.2,0.1,0.3,0.3,0.5,0.4
		c0.3,0.1,0.4,0.4,0.6,0.5c0,0,0,0,0.1,0.1c0.1,0.1,0.3,0.2,0.4,0.3c0.3,0.2,0.5,0.5,0.8,0.7c0.3,0.2,0.5,0.5,0.4,0.9
		c-0.1,0.4-0.4,0.8-0.7,1.1c-0.3,0.2-0.5,0.3-0.8,0.4c0,0-0.1,0-0.1,0c-0.2,0.1-0.4,0-0.6,0.1c-0.3-0.4-0.5-0.8-0.8-1.1
		C20.9,23,20.6,22.4,20.2,22z"/>
</g>
</svg>
