<?xml version="1.0" encoding="utf-8"?>
<!-- Generator: Adobe Illustrator 24.0.2, SVG Export Plug-In . SVG Version: 6.00 Build 0)  -->
<svg version="1.1" id="Capa_1" xmlns="http://www.w3.org/2000/svg" xmlns:xlink="http://www.w3.org/1999/xlink" x="0px" y="0px"
	 viewBox="0 0 25 25" style="enable-background:new 0 0 25 25;" xml:space="preserve">
<style type="text/css">
	.st0{fill:#C50303;}
</style>
<g>
	<path class="st0" d="M0,25c0.7-2.1,1.4-4.1,2.1-6.1c0.1-0.2,0.1-0.4,0-0.7c-4-7-0.1-15.9,7.7-17.8c6.7-1.6,13.3,2.4,14.9,9
		c1.6,6.6-2.7,13.4-9.3,14.8C12.4,24.7,9.7,24.3,7,23c-0.2-0.1-0.3-0.1-0.5,0c-2.1,0.7-4.2,1.4-6.4,2C0.1,25,0.1,25,0,25z M3.1,21.9
		c0.1,0.1,0.3,0,0.4,0c1.1-0.3,2.2-0.7,3.3-1.1c0.2-0.1,0.3,0,0.4,0.1c2.3,1.4,4.9,1.9,7.6,1.4c5.3-1,8.9-6.2,8.1-11.4
		C22.1,4.9,16.5,1,10.8,2.1C3.5,3.6,0.1,11.8,4.2,18c0.1,0.2,0.1,0.3,0.1,0.5C3.9,19.6,3.5,20.7,3.1,21.9z"/>
	<path class="st0" d="M6.7,9.5c0-1,0.4-1.8,1.1-2.5c0.4-0.4,1-0.4,1.6-0.4c0.2,0,0.3,0.2,0.4,0.3c0.4,0.9,0.7,1.7,1.1,2.6
		c0.1,0.3-0.1,0.6-0.2,0.8c-0.2,0.2-0.4,0.5-0.6,0.7c-0.2,0.2-0.2,0.4-0.1,0.6c1,1.6,2.4,2.8,4.2,3.5c0.2,0.1,0.4,0,0.6-0.1
		c0.3-0.4,0.6-0.7,0.9-1.1c0.2-0.2,0.4-0.3,0.7-0.2c0.9,0.4,1.7,0.8,2.5,1.2C19,15,19,15.2,19,15.4c-0.1,1.2-0.9,2.2-2.1,2.4
		c-0.7,0.1-1.3,0.1-2-0.1c-2.9-0.8-5.1-2.5-6.7-4.9C7.5,12,7,11.2,6.8,10.2C6.8,10,6.8,9.7,6.7,9.5z"/>
</g>
</svg>
